# xmcd
#
# Track frame offsets:
#	150
#	2560
#	24887
#	46432
#	70405
#	89332
#	108982
#	114407
#	133467
#	154937
#
# Disc length: 2337 seconds
#
# Revision: 6
# Processed by: cddbd v1.5.2PL0 Copyright (c) Steve Scherf et al.
# Submitted via: EasyCDDAExtractor 11.1.0.1
#
DISCID=7f091f0a
DTITLE=조관우 - 2집 - My Memory
DYEAR=1995
DGENRE=Ballad
TTITLE0=Intro
TTITLE1=겨울 이야기
TTITLE2=슬픈 인연
TTITLE3=님은 먼곳에
TTITLE4=꽃밭에서
TTITLE5=당신은 모르실꺼야
TTITLE6=Interlude
TTITLE7=빗물
TTITLE8=모래성
TTITLE9=애모 (愛慕)
EXTD=ID3G:  10
EXTT0=
EXTT1=
EXTT2=
EXTT3=
EXTT4=
EXTT5=
EXTT6=
EXTT7=
EXTT8=
EXTT9=
PLAYORDER=
